<svg width="906" height="1110" viewBox="0 0 906 1110" fill="none" xmlns="http://www.w3.org/2000/svg">
<rect width="906" height="1110" fill="#E5E5E5"/>
<path d="M384.029 178.753C267.426 178.753 172.9 273.033 172.9 389.333H595.159C595.159 273.033 500.633 178.753 384.029 178.753Z" fill="#C4C4C4"/>
<path d="M381.448 57.245C191.576 57.245 37.6533 210.766 37.6533 400.145H633.745H725.243C725.243 210.766 571.321 57.245 381.448 57.245Z" fill="#D7D7D7" stroke="#C4C4C4" stroke-width="20"/>
<g filter="url(#filter0_i)">
<path d="M381.964 258.042C303.563 258.042 240.007 321.664 240.007 400.145H486.141H523.922C523.922 321.664 460.365 258.042 381.964 258.042Z" fill="#FF536F"/>
</g>
<g filter="url(#filter1_i)">
<ellipse cx="381.964" cy="369.768" rx="30.4563" ry="30.377" fill="#FEFEFE"/>
</g>
<ellipse cx="381.964" cy="389.333" rx="289.593" ry="288.839" stroke="white" stroke-width="20"/>
<ellipse cx="381.964" cy="389.332" rx="234.875" ry="234.263" stroke="white" stroke-width="20"/>
<ellipse cx="381.964" cy="399.63" rx="193.578" ry="193.074" stroke="white" stroke-width="20"/>
<g filter="url(#filter2_i)">
<rect x="72.0752" y="378.989" width="584.192" height="716.076" rx="90" fill="#11CAE6"/>
</g>
<rect x="72.0752" y="378.989" width="584.192" height="716.076" rx="90" stroke="#18356C" stroke-width="20"/>
<g filter="url(#filter3_i)">
<rect x="54.3726" y="550.651" width="89.4974" height="355.095" fill="#11CAE6"/>
</g>
<rect x="54.3726" y="550.651" width="89.4974" height="355.095" stroke="#18356C" stroke-width="20"/>
<g filter="url(#filter4_i)">
<rect x="591.357" y="550.651" width="89.4974" height="355.095" fill="#11CAE6"/>
</g>
<rect x="591.357" y="550.651" width="89.4974" height="355.095" stroke="#18356C" stroke-width="20"/>
<g filter="url(#filter5_i)">
<rect x="32.7358" y="882.204" width="111.134" height="207.956" rx="25" fill="#11CAE6"/>
</g>
<rect x="32.7358" y="882.204" width="111.134" height="207.956" rx="25" stroke="#18356C" stroke-width="20"/>
<g filter="url(#filter6_i)">
<rect x="591.357" y="882.204" width="111.134" height="207.956" rx="25" fill="#11CAE6"/>
</g>
<rect x="591.357" y="882.204" width="111.134" height="207.956" rx="25" stroke="#18356C" stroke-width="20"/>
<g filter="url(#filter7_i)">
<rect x="17" y="374.084" width="122.936" height="189.319" rx="25" fill="#11CAE6"/>
</g>
<rect x="17" y="374.084" width="122.936" height="189.319" rx="25" stroke="#18356C" stroke-width="20"/>
<g filter="url(#filter8_i)">
<rect x="595.291" y="374.084" width="122.936" height="189.319" rx="25" fill="#11CAE6"/>
</g>
<rect x="595.291" y="374.084" width="122.936" height="189.319" rx="25" stroke="#18356C" stroke-width="20"/>
<g filter="url(#filter9_i)">
<path d="M360.941 909.67C467.777 909.67 560.259 909.67 560.259 566.346H173.375C173.375 909.67 254.106 909.67 360.941 909.67Z" fill="#18356C"/>
</g>
<g filter="url(#filter10_i)">
<path d="M284.179 117.087L251.176 68.7934C244.351 58.805 247.897 45.0312 259.046 40.3354C361.222 -2.69789 456.554 17.5616 506.92 39.9177C517.691 44.6983 520.415 58.1294 513.434 67.6223L476.636 117.659C471.686 124.389 463.087 127.315 454.922 125.549C436.345 121.533 406.885 116.947 377.486 117.578C349.189 118.185 322.901 122.201 306.087 125.632C297.731 127.338 288.99 124.129 284.179 117.087Z" fill="#FF536F"/>
</g>
<path d="M284.179 117.087L251.176 68.7934C244.351 58.805 247.897 45.0312 259.046 40.3354C361.222 -2.69789 456.554 17.5616 506.92 39.9177C517.691 44.6983 520.415 58.1294 513.434 67.6223L476.636 117.659C471.686 124.389 463.087 127.315 454.922 125.549C436.345 121.533 406.885 116.947 377.486 117.578C349.189 118.185 322.901 122.201 306.087 125.632C297.731 127.338 288.99 124.129 284.179 117.087Z" stroke="#18356C" stroke-width="20"/>
<g filter="url(#filter11_i)">
<rect x="162.557" y="929.289" width="410.114" height="29.4086" rx="14.7043" fill="#FFE270"/>
</g>
<g filter="url(#filter12_i)">
<rect x="162.556" y="971.174" width="410.114" height="29.4086" rx="14.7043" fill="#FFE270"/>
</g>
<g filter="url(#filter13_i)">
<rect x="162.556" y="1013.06" width="410.114" height="29.4086" rx="14.7043" fill="#FFE270"/>
</g>
<path d="M524.972 628.24C532.881 628.24 539.315 621.841 539.315 613.921C539.315 606.001 532.881 599.602 524.972 599.602C517.062 599.602 510.628 606.001 510.628 613.921C510.628 621.841 517.062 628.24 524.972 628.24Z" fill="#FFF7D9" stroke="#FDC169" stroke-width="10"/>
<path d="M210.255 628.24C218.164 628.24 224.598 621.841 224.598 613.921C224.598 606.001 218.164 599.602 210.255 599.602C202.346 599.602 195.912 606.001 195.912 613.921C195.912 621.841 202.346 628.24 210.255 628.24Z" fill="white" stroke="#FDC169" stroke-width="10"/>
<g filter="url(#filter14_i)">
<path d="M366.279 865.529C426.299 865.529 478.256 865.529 478.256 660.515H260.905C260.905 865.529 306.26 865.529 366.279 865.529Z" fill="#FFE270"/>
</g>
<g filter="url(#filter15_i)">
<rect x="235.334" y="590.869" width="264.558" height="101.035" rx="25" fill="#FFE270"/>
</g>
<path d="M371.547 846.986C379.456 846.986 385.89 840.588 385.89 832.667C385.89 824.747 379.456 818.349 371.547 818.349C363.638 818.349 357.204 824.747 357.204 832.667C357.204 840.588 363.638 846.986 371.547 846.986Z" fill="#FFF7D9" stroke="#FDC169" stroke-width="10"/>
<path d="M287.459 59.6975C287.459 66.7402 281.735 72.4495 274.674 72.4495C267.613 72.4495 261.889 66.7402 261.889 59.6975C261.889 52.6547 267.613 46.9454 274.674 46.9454C281.735 46.9454 287.459 52.6547 287.459 59.6975Z" fill="white"/>
<g filter="url(#filter16_i)">
<rect x="282.542" y="637.954" width="62.9432" height="11.7711" rx="5.88556" fill="#FFF7D9"/>
</g>
<g filter="url(#filter17_i)">
<rect x="389.742" y="637.954" width="62.9432" height="11.7711" rx="5.88556" fill="#FFF7D9"/>
</g>
<g filter="url(#filter18_i)">
<rect x="282.542" y="654.629" width="52.1249" height="11.7711" rx="5.88556" fill="#FFF7D9"/>
</g>
<g filter="url(#filter19_i)">
<rect x="400.561" y="655.61" width="52.1249" height="11.7711" rx="5.88556" fill="#FFF7D9"/>
</g>
<ellipse cx="369.089" cy="644.82" rx="6.88441" ry="6.86649" fill="#FFF7D9" stroke="white" stroke-width="5"/>
<g filter="url(#filter20_i)">
<rect x="282.542" y="604.602" width="170.143" height="27.4659" rx="13.733" fill="#FFF7D9"/>
</g>
<g filter="url(#filter21_d)">
<g filter="url(#filter22_i)">
<path d="M102.563 375.542C102.563 361.735 113.756 350.542 127.563 350.542H238.698C252.505 350.542 263.698 361.735 263.698 375.542V541.346C263.698 555.153 252.505 566.346 238.698 566.346H127.563C113.756 566.346 102.563 555.153 102.563 541.346V375.542Z" fill="#F2F2F2"/>
</g>
<path d="M102.563 375.542C102.563 361.735 113.756 350.542 127.563 350.542H238.698C252.505 350.542 263.698 361.735 263.698 375.542V541.346C263.698 555.153 252.505 566.346 238.698 566.346H127.563C113.756 566.346 102.563 555.153 102.563 541.346V375.542Z" stroke="#18356C" stroke-width="20"/>
<g filter="url(#filter23_i)">
<path d="M300.228 375.542C300.228 361.735 311.42 350.542 325.228 350.542H436.362C450.169 350.542 461.362 361.735 461.362 375.542V541.346C461.362 555.153 450.169 566.346 436.362 566.346H325.228C311.42 566.346 300.228 555.153 300.228 541.346V375.542Z" fill="#F2F2F2"/>
</g>
<path d="M300.228 375.542C300.228 361.735 311.42 350.542 325.228 350.542H436.362C450.169 350.542 461.362 361.735 461.362 375.542V541.346C461.362 555.153 450.169 566.346 436.362 566.346H325.228C311.42 566.346 300.228 555.153 300.228 541.346V375.542Z" stroke="#18356C" stroke-width="20"/>
<g filter="url(#filter24_i)">
<rect x="499.892" y="350.542" width="161.135" height="215.804" rx="25" fill="#F2F2F2"/>
</g>
<rect x="499.892" y="350.542" width="161.135" height="215.804" rx="25" stroke="#18356C" stroke-width="20"/>
</g>
<ellipse cx="762.484" cy="487.872" rx="46.2239" ry="46.1035" fill="#049DBD" stroke="#18356C" stroke-width="20"/>
<rect x="714.293" y="383.894" width="51.1414" height="166.757" rx="10" fill="#049DBD" stroke="#18356C" stroke-width="20"/>
<path d="M806.022 487.033C827.905 487.71 846.128 487.063 846.08 423.131" stroke="#18356C" stroke-width="20"/>
<g filter="url(#filter25_i)">
<ellipse cx="848.539" cy="369.67" rx="57.534" ry="57.3842" fill="#FF536F"/>
</g>
<ellipse cx="879.519" cy="340.733" rx="9.83488" ry="9.80926" fill="white"/>
<g filter="url(#filter26_i)">
<path d="M211.734 437.016C209.651 439.066 206.754 442.729 203.043 448.002C199.332 453.243 196.223 458.663 193.717 464.262C191.731 468.656 189.941 474.027 188.346 480.375C186.751 486.723 185.953 491.931 185.953 496H171.5C171.923 483.305 176.09 470.105 184 456.4C189.111 447.904 193.391 441.98 196.842 438.627H161.539L161.734 426.127H211.734V437.016Z" fill="#EF425E"/>
</g>
<path d="M211.734 437.016L222.257 447.705L226.734 443.298V437.016H211.734ZM203.043 448.002L215.285 456.67L215.297 456.652L215.31 456.634L203.043 448.002ZM193.717 464.262L207.386 470.438L207.397 470.414L207.408 470.391L193.717 464.262ZM185.953 496V511H200.953V496H185.953ZM171.5 496L156.508 495.5L155.992 511H171.5V496ZM184 456.4L171.146 448.668L171.076 448.785L171.009 448.902L184 456.4ZM196.842 438.627L207.295 449.385L233.803 423.627H196.842V438.627ZM161.539 438.627L146.541 438.393L146.303 453.627H161.539V438.627ZM161.734 426.127V411.127H146.967L146.736 425.893L161.734 426.127ZM211.734 426.127H226.734V411.127H211.734V426.127ZM201.212 426.326C198.092 429.397 194.539 434.021 190.776 439.37L215.31 456.634C218.968 451.436 221.21 448.736 222.257 447.705L201.212 426.326ZM190.801 439.334C186.552 445.335 182.95 451.602 180.026 458.133L207.408 470.391C209.497 465.724 212.112 461.151 215.285 456.67L190.801 439.334ZM180.047 458.085C177.591 463.521 175.539 469.791 173.798 476.719L202.893 484.031C204.342 478.264 205.871 473.791 207.386 470.438L180.047 458.085ZM173.798 476.719C172.061 483.633 170.953 490.185 170.953 496H200.953C200.953 493.677 201.441 489.813 202.893 484.031L173.798 476.719ZM185.953 481H171.5V511H185.953V481ZM186.492 496.5C186.815 486.799 190.015 475.985 196.991 463.899L171.009 448.902C162.165 464.224 157.031 479.81 156.508 495.5L186.492 496.5ZM196.854 464.132C201.846 455.833 205.309 451.314 207.295 449.385L186.389 427.869C181.473 432.645 176.375 439.976 171.146 448.668L196.854 464.132ZM196.842 423.627H161.539V453.627H196.842V423.627ZM176.537 438.861L176.733 426.361L146.736 425.893L146.541 438.393L176.537 438.861ZM161.734 441.127H211.734V411.127H161.734V441.127ZM196.734 426.127V437.016H226.734V426.127H196.734Z" fill="#18356C"/>
<g filter="url(#filter27_i)">
<path d="M613.734 437.016C611.651 439.066 608.754 442.729 605.043 448.002C601.332 453.243 598.223 458.663 595.717 464.262C593.731 468.656 591.941 474.027 590.346 480.375C588.751 486.723 587.953 491.931 587.953 496H573.5C573.923 483.305 578.09 470.105 586 456.4C591.111 447.904 595.391 441.98 598.842 438.627H563.539L563.734 426.127H613.734V437.016Z" fill="#EF425E"/>
</g>
<path d="M613.734 437.016L624.257 447.705L628.734 443.298V437.016H613.734ZM605.043 448.002L617.285 456.67L617.297 456.652L617.31 456.634L605.043 448.002ZM595.717 464.262L609.386 470.438L609.397 470.414L609.408 470.391L595.717 464.262ZM587.953 496V511H602.953V496H587.953ZM573.5 496L558.508 495.5L557.992 511H573.5V496ZM586 456.4L573.146 448.668L573.076 448.785L573.009 448.902L586 456.4ZM598.842 438.627L609.295 449.385L635.803 423.627H598.842V438.627ZM563.539 438.627L548.541 438.393L548.303 453.627H563.539V438.627ZM563.734 426.127V411.127H548.967L548.736 425.893L563.734 426.127ZM613.734 426.127H628.734V411.127H613.734V426.127ZM603.212 426.326C600.092 429.397 596.539 434.021 592.776 439.37L617.31 456.634C620.968 451.436 623.21 448.736 624.257 447.705L603.212 426.326ZM592.801 439.334C588.552 445.335 584.95 451.602 582.026 458.133L609.408 470.391C611.497 465.724 614.112 461.151 617.285 456.67L592.801 439.334ZM582.047 458.085C579.591 463.521 577.539 469.791 575.798 476.719L604.893 484.031C606.342 478.264 607.871 473.791 609.386 470.438L582.047 458.085ZM575.798 476.719C574.061 483.633 572.953 490.185 572.953 496H602.953C602.953 493.677 603.441 489.813 604.893 484.031L575.798 476.719ZM587.953 481H573.5V511H587.953V481ZM588.492 496.5C588.815 486.799 592.015 475.985 598.991 463.899L573.009 448.902C564.165 464.224 559.031 479.81 558.508 495.5L588.492 496.5ZM598.854 464.132C603.846 455.833 607.309 451.314 609.295 449.385L588.389 427.869C583.473 432.645 578.375 439.976 573.146 448.668L598.854 464.132ZM598.842 423.627H563.539V453.627H598.842V423.627ZM578.537 438.861L578.733 426.361L548.736 425.893L548.541 438.393L578.537 438.861ZM563.734 441.127H613.734V411.127H563.734V441.127ZM598.734 426.127V437.016H628.734V426.127H598.734Z" fill="#18356C"/>
<g filter="url(#filter28_i)">
<path d="M412.734 428.016C410.651 430.066 407.754 433.729 404.043 439.002C400.332 444.243 397.223 449.663 394.717 455.262C392.731 459.656 390.941 465.027 389.346 471.375C387.751 477.723 386.953 482.931 386.953 487H372.5C372.923 474.305 377.09 461.105 385 447.4C390.111 438.904 394.391 432.98 397.842 429.627H362.539L362.734 417.127H412.734V428.016Z" fill="#EF425E"/>
</g>
<path d="M412.734 428.016L423.257 438.705L427.734 434.298V428.016H412.734ZM404.043 439.002L416.285 447.67L416.297 447.652L416.31 447.634L404.043 439.002ZM394.717 455.262L408.386 461.438L408.397 461.414L408.408 461.391L394.717 455.262ZM386.953 487V502H401.953V487H386.953ZM372.5 487L357.508 486.5L356.992 502H372.5V487ZM385 447.4L372.146 439.668L372.076 439.785L372.009 439.902L385 447.4ZM397.842 429.627L408.295 440.385L434.803 414.627H397.842V429.627ZM362.539 429.627L347.541 429.393L347.303 444.627H362.539V429.627ZM362.734 417.127V402.127H347.967L347.736 416.893L362.734 417.127ZM412.734 417.127H427.734V402.127H412.734V417.127ZM402.212 417.326C399.092 420.397 395.539 425.021 391.776 430.37L416.31 447.634C419.968 442.436 422.21 439.736 423.257 438.705L402.212 417.326ZM391.801 430.334C387.552 436.335 383.95 442.602 381.026 449.133L408.408 461.391C410.497 456.724 413.112 452.151 416.285 447.67L391.801 430.334ZM381.047 449.085C378.591 454.521 376.539 460.791 374.798 467.719L403.893 475.031C405.342 469.264 406.871 464.791 408.386 461.438L381.047 449.085ZM374.798 467.719C373.061 474.633 371.953 481.185 371.953 487H401.953C401.953 484.677 402.441 480.813 403.893 475.031L374.798 467.719ZM386.953 472H372.5V502H386.953V472ZM387.492 487.5C387.815 477.799 391.015 466.985 397.991 454.899L372.009 439.902C363.165 455.224 358.031 470.81 357.508 486.5L387.492 487.5ZM397.854 455.132C402.846 446.833 406.309 442.314 408.295 440.385L387.389 418.869C382.473 423.645 377.375 430.976 372.146 439.668L397.854 455.132ZM397.842 414.627H362.539V444.627H397.842V414.627ZM377.537 429.861L377.733 417.361L347.736 416.893L347.541 429.393L377.537 429.861ZM362.734 432.127H412.734V402.127H362.734V432.127ZM397.734 417.127V428.016H427.734V417.127H397.734Z" fill="#18356C"/>
<defs>
<filter id="filter0_i" x="240.007" y="258.042" width="283.915" height="142.103" filterUnits="userSpaceOnUse" color-interpolation-filters="sRGB">
<feFlood flood-opacity="0" result="BackgroundImageFix"/>
<feBlend mode="normal" in="SourceGraphic" in2="BackgroundImageFix" result="shape"/>
<feColorMatrix in="SourceAlpha" type="matrix" values="0 0 0 0 0 0 0 0 0 0 0 0 0 0 0 0 0 0 127 0" result="hardAlpha"/>
<feOffset dx="-10" dy="10"/>
<feComposite in2="hardAlpha" operator="arithmetic" k2="-1" k3="1"/>
<feColorMatrix type="matrix" values="0 0 0 0 0.819608 0 0 0 0 0.235294 0 0 0 0 0.360784 0 0 0 1 0"/>
<feBlend mode="normal" in2="shape" result="effect1_innerShadow"/>
</filter>
<filter id="filter1_i" x="351.508" y="339.391" width="60.9126" height="60.754" filterUnits="userSpaceOnUse" color-interpolation-filters="sRGB">
<feFlood flood-opacity="0" result="BackgroundImageFix"/>
<feBlend mode="normal" in="SourceGraphic" in2="BackgroundImageFix" result="shape"/>
<feColorMatrix in="SourceAlpha" type="matrix" values="0 0 0 0 0 0 0 0 0 0 0 0 0 0 0 0 0 0 127 0" result="hardAlpha"/>
<feOffset dx="-5" dy="5"/>
<feComposite in2="hardAlpha" operator="arithmetic" k2="-1" k3="1"/>
<feColorMatrix type="matrix" values="0 0 0 0 0.768627 0 0 0 0 0.768627 0 0 0 0 0.768627 0 0 0 1 0"/>
<feBlend mode="normal" in2="shape" result="effect1_innerShadow"/>
</filter>
<filter id="filter2_i" x="62.0752" y="368.989" width="604.192" height="736.076" filterUnits="userSpaceOnUse" color-interpolation-filters="sRGB">
<feFlood flood-opacity="0" result="BackgroundImageFix"/>
<feBlend mode="normal" in="SourceGraphic" in2="BackgroundImageFix" result="shape"/>
<feColorMatrix in="SourceAlpha" type="matrix" values="0 0 0 0 0 0 0 0 0 0 0 0 0 0 0 0 0 0 127 0" result="hardAlpha"/>
<feOffset dx="-75" dy="-75"/>
<feComposite in2="hardAlpha" operator="arithmetic" k2="-1" k3="1"/>
<feColorMatrix type="matrix" values="0 0 0 0 0.0156863 0 0 0 0 0.615686 0 0 0 0 0.741176 0 0 0 1 0"/>
<feBlend mode="normal" in2="shape" result="effect1_innerShadow"/>
</filter>
<filter id="filter3_i" x="44.3726" y="540.651" width="109.497" height="375.095" filterUnits="userSpaceOnUse" color-interpolation-filters="sRGB">
<feFlood flood-opacity="0" result="BackgroundImageFix"/>
<feBlend mode="normal" in="SourceGraphic" in2="BackgroundImageFix" result="shape"/>
<feColorMatrix in="SourceAlpha" type="matrix" values="0 0 0 0 0 0 0 0 0 0 0 0 0 0 0 0 0 0 127 0" result="hardAlpha"/>
<feOffset dx="30" dy="15"/>
<feComposite in2="hardAlpha" operator="arithmetic" k2="-1" k3="1"/>
<feColorMatrix type="matrix" values="0 0 0 0 1 0 0 0 0 1 0 0 0 0 1 0 0 0 1 0"/>
<feBlend mode="normal" in2="shape" result="effect1_innerShadow"/>
</filter>
<filter id="filter4_i" x="581.357" y="540.651" width="109.497" height="375.095" filterUnits="userSpaceOnUse" color-interpolation-filters="sRGB">
<feFlood flood-opacity="0" result="BackgroundImageFix"/>
<feBlend mode="normal" in="SourceGraphic" in2="BackgroundImageFix" result="shape"/>
<feColorMatrix in="SourceAlpha" type="matrix" values="0 0 0 0 0 0 0 0 0 0 0 0 0 0 0 0 0 0 127 0" result="hardAlpha"/>
<feOffset dx="-45" dy="15"/>
<feComposite in2="hardAlpha" operator="arithmetic" k2="-1" k3="1"/>
<feColorMatrix type="matrix" values="0 0 0 0 0.0156863 0 0 0 0 0.615686 0 0 0 0 0.741176 0 0 0 1 0"/>
<feBlend mode="normal" in2="shape" result="effect1_innerShadow"/>
</filter>
<filter id="filter5_i" x="22.7358" y="872.204" width="131.134" height="227.956" filterUnits="userSpaceOnUse" color-interpolation-filters="sRGB">
<feFlood flood-opacity="0" result="BackgroundImageFix"/>
<feBlend mode="normal" in="SourceGraphic" in2="BackgroundImageFix" result="shape"/>
<feColorMatrix in="SourceAlpha" type="matrix" values="0 0 0 0 0 0 0 0 0 0 0 0 0 0 0 0 0 0 127 0" result="hardAlpha"/>
<feOffset dx="30" dy="15"/>
<feComposite in2="hardAlpha" operator="arithmetic" k2="-1" k3="1"/>
<feColorMatrix type="matrix" values="0 0 0 0 1 0 0 0 0 1 0 0 0 0 1 0 0 0 1 0"/>
<feBlend mode="normal" in2="shape" result="effect1_innerShadow"/>
</filter>
<filter id="filter6_i" x="581.357" y="872.204" width="131.134" height="227.956" filterUnits="userSpaceOnUse" color-interpolation-filters="sRGB">
<feFlood flood-opacity="0" result="BackgroundImageFix"/>
<feBlend mode="normal" in="SourceGraphic" in2="BackgroundImageFix" result="shape"/>
<feColorMatrix in="SourceAlpha" type="matrix" values="0 0 0 0 0 0 0 0 0 0 0 0 0 0 0 0 0 0 127 0" result="hardAlpha"/>
<feOffset dx="-45" dy="15"/>
<feComposite in2="hardAlpha" operator="arithmetic" k2="-1" k3="1"/>
<feColorMatrix type="matrix" values="0 0 0 0 0.0156863 0 0 0 0 0.615686 0 0 0 0 0.741176 0 0 0 1 0"/>
<feBlend mode="normal" in2="shape" result="effect1_innerShadow"/>
</filter>
<filter id="filter7_i" x="7" y="364.084" width="142.936" height="209.319" filterUnits="userSpaceOnUse" color-interpolation-filters="sRGB">
<feFlood flood-opacity="0" result="BackgroundImageFix"/>
<feBlend mode="normal" in="SourceGraphic" in2="BackgroundImageFix" result="shape"/>
<feColorMatrix in="SourceAlpha" type="matrix" values="0 0 0 0 0 0 0 0 0 0 0 0 0 0 0 0 0 0 127 0" result="hardAlpha"/>
<feOffset dx="30" dy="15"/>
<feComposite in2="hardAlpha" operator="arithmetic" k2="-1" k3="1"/>
<feColorMatrix type="matrix" values="0 0 0 0 1 0 0 0 0 1 0 0 0 0 1 0 0 0 1 0"/>
<feBlend mode="normal" in2="shape" result="effect1_innerShadow"/>
</filter>
<filter id="filter8_i" x="585.291" y="364.084" width="142.936" height="209.319" filterUnits="userSpaceOnUse" color-interpolation-filters="sRGB">
<feFlood flood-opacity="0" result="BackgroundImageFix"/>
<feBlend mode="normal" in="SourceGraphic" in2="BackgroundImageFix" result="shape"/>
<feColorMatrix in="SourceAlpha" type="matrix" values="0 0 0 0 0 0 0 0 0 0 0 0 0 0 0 0 0 0 127 0" result="hardAlpha"/>
<feOffset dx="-45" dy="15"/>
<feComposite in2="hardAlpha" operator="arithmetic" k2="-1" k3="1"/>
<feColorMatrix type="matrix" values="0 0 0 0 0.0156863 0 0 0 0 0.615686 0 0 0 0 0.741176 0 0 0 1 0"/>
<feBlend mode="normal" in2="shape" result="effect1_innerShadow"/>
</filter>
<filter id="filter9_i" x="173.375" y="566.346" width="386.885" height="343.324" filterUnits="userSpaceOnUse" color-interpolation-filters="sRGB">
<feFlood flood-opacity="0" result="BackgroundImageFix"/>
<feBlend mode="normal" in="SourceGraphic" in2="BackgroundImageFix" result="shape"/>
<feColorMatrix in="SourceAlpha" type="matrix" values="0 0 0 0 0 0 0 0 0 0 0 0 0 0 0 0 0 0 127 0" result="hardAlpha"/>
<feOffset dx="-20" dy="15"/>
<feComposite in2="hardAlpha" operator="arithmetic" k2="-1" k3="1"/>
<feColorMatrix type="matrix" values="0 0 0 0 0.0447222 0 0 0 0 0.161624 0 0 0 0 0.383333 0 0 0 1 0"/>
<feBlend mode="normal" in2="shape" result="effect1_innerShadow"/>
</filter>
<filter id="filter10_i" x="237.719" y="5.06372" width="289.533" height="131.015" filterUnits="userSpaceOnUse" color-interpolation-filters="sRGB">
<feFlood flood-opacity="0" result="BackgroundImageFix"/>
<feBlend mode="normal" in="SourceGraphic" in2="BackgroundImageFix" result="shape"/>
<feColorMatrix in="SourceAlpha" type="matrix" values="0 0 0 0 0 0 0 0 0 0 0 0 0 0 0 0 0 0 127 0" result="hardAlpha"/>
<feOffset dx="-50" dy="5"/>
<feComposite in2="hardAlpha" operator="arithmetic" k2="-1" k3="1"/>
<feColorMatrix type="matrix" values="0 0 0 0 0.819608 0 0 0 0 0.235294 0 0 0 0 0.360784 0 0 0 1 0"/>
<feBlend mode="normal" in2="shape" result="effect1_innerShadow"/>
</filter>
<filter id="filter11_i" x="162.557" y="929.289" width="410.114" height="29.4086" filterUnits="userSpaceOnUse" color-interpolation-filters="sRGB">
<feFlood flood-opacity="0" result="BackgroundImageFix"/>
<feBlend mode="normal" in="SourceGraphic" in2="BackgroundImageFix" result="shape"/>
<feColorMatrix in="SourceAlpha" type="matrix" values="0 0 0 0 0 0 0 0 0 0 0 0 0 0 0 0 0 0 127 0" result="hardAlpha"/>
<feOffset dy="4"/>
<feComposite in2="hardAlpha" operator="arithmetic" k2="-1" k3="1"/>
<feColorMatrix type="matrix" values="0 0 0 0 0.9 0 0 0 0 0.88125 0 0 0 0 0.88125 0 0 0 1 0"/>
<feBlend mode="normal" in2="shape" result="effect1_innerShadow"/>
</filter>
<filter id="filter12_i" x="162.556" y="971.174" width="410.114" height="29.4086" filterUnits="userSpaceOnUse" color-interpolation-filters="sRGB">
<feFlood flood-opacity="0" result="BackgroundImageFix"/>
<feBlend mode="normal" in="SourceGraphic" in2="BackgroundImageFix" result="shape"/>
<feColorMatrix in="SourceAlpha" type="matrix" values="0 0 0 0 0 0 0 0 0 0 0 0 0 0 0 0 0 0 127 0" result="hardAlpha"/>
<feOffset dy="4"/>
<feComposite in2="hardAlpha" operator="arithmetic" k2="-1" k3="1"/>
<feColorMatrix type="matrix" values="0 0 0 0 0.898039 0 0 0 0 0.882353 0 0 0 0 0.882353 0 0 0 1 0"/>
<feBlend mode="normal" in2="shape" result="effect1_innerShadow"/>
</filter>
<filter id="filter13_i" x="162.556" y="1013.06" width="410.114" height="29.4086" filterUnits="userSpaceOnUse" color-interpolation-filters="sRGB">
<feFlood flood-opacity="0" result="BackgroundImageFix"/>
<feBlend mode="normal" in="SourceGraphic" in2="BackgroundImageFix" result="shape"/>
<feColorMatrix in="SourceAlpha" type="matrix" values="0 0 0 0 0 0 0 0 0 0 0 0 0 0 0 0 0 0 127 0" result="hardAlpha"/>
<feOffset dy="4"/>
<feComposite in2="hardAlpha" operator="arithmetic" k2="-1" k3="1"/>
<feColorMatrix type="matrix" values="0 0 0 0 0.898039 0 0 0 0 0.882353 0 0 0 0 0.882353 0 0 0 1 0"/>
<feBlend mode="normal" in2="shape" result="effect1_innerShadow"/>
</filter>
<filter id="filter14_i" x="260.905" y="660.515" width="217.351" height="205.014" filterUnits="userSpaceOnUse" color-interpolation-filters="sRGB">
<feFlood flood-opacity="0" result="BackgroundImageFix"/>
<feBlend mode="normal" in="SourceGraphic" in2="BackgroundImageFix" result="shape"/>
<feColorMatrix in="SourceAlpha" type="matrix" values="0 0 0 0 0 0 0 0 0 0 0 0 0 0 0 0 0 0 127 0" result="hardAlpha"/>
<feOffset dx="-25" dy="20"/>
<feComposite in2="hardAlpha" operator="arithmetic" k2="-1" k3="1"/>
<feColorMatrix type="matrix" values="0 0 0 0 0.992157 0 0 0 0 0.756863 0 0 0 0 0.411765 0 0 0 1 0"/>
<feBlend mode="normal" in2="shape" result="effect1_innerShadow"/>
</filter>
<filter id="filter15_i" x="235.334" y="590.869" width="264.558" height="101.035" filterUnits="userSpaceOnUse" color-interpolation-filters="sRGB">
<feFlood flood-opacity="0" result="BackgroundImageFix"/>
<feBlend mode="normal" in="SourceGraphic" in2="BackgroundImageFix" result="shape"/>
<feColorMatrix in="SourceAlpha" type="matrix" values="0 0 0 0 0 0 0 0 0 0 0 0 0 0 0 0 0 0 127 0" result="hardAlpha"/>
<feOffset dx="-10" dy="-10"/>
<feComposite in2="hardAlpha" operator="arithmetic" k2="-1" k3="1"/>
<feColorMatrix type="matrix" values="0 0 0 0 0.992157 0 0 0 0 0.756863 0 0 0 0 0.411765 0 0 0 1 0"/>
<feBlend mode="normal" in2="shape" result="effect1_innerShadow"/>
</filter>
<filter id="filter16_i" x="282.542" y="637.954" width="62.9432" height="11.7711" filterUnits="userSpaceOnUse" color-interpolation-filters="sRGB">
<feFlood flood-opacity="0" result="BackgroundImageFix"/>
<feBlend mode="normal" in="SourceGraphic" in2="BackgroundImageFix" result="shape"/>
<feColorMatrix in="SourceAlpha" type="matrix" values="0 0 0 0 0 0 0 0 0 0 0 0 0 0 0 0 0 0 127 0" result="hardAlpha"/>
<feOffset dx="3" dy="3"/>
<feComposite in2="hardAlpha" operator="arithmetic" k2="-1" k3="1"/>
<feColorMatrix type="matrix" values="0 0 0 0 1 0 0 0 0 1 0 0 0 0 1 0 0 0 1 0"/>
<feBlend mode="normal" in2="shape" result="effect1_innerShadow"/>
</filter>
<filter id="filter17_i" x="389.742" y="637.954" width="62.9432" height="11.7711" filterUnits="userSpaceOnUse" color-interpolation-filters="sRGB">
<feFlood flood-opacity="0" result="BackgroundImageFix"/>
<feBlend mode="normal" in="SourceGraphic" in2="BackgroundImageFix" result="shape"/>
<feColorMatrix in="SourceAlpha" type="matrix" values="0 0 0 0 0 0 0 0 0 0 0 0 0 0 0 0 0 0 127 0" result="hardAlpha"/>
<feOffset dx="-5" dy="3"/>
<feComposite in2="hardAlpha" operator="arithmetic" k2="-1" k3="1"/>
<feColorMatrix type="matrix" values="0 0 0 0 1 0 0 0 0 0.94902 0 0 0 0 0.764706 0 0 0 1 0"/>
<feBlend mode="normal" in2="shape" result="effect1_innerShadow"/>
</filter>
<filter id="filter18_i" x="282.542" y="654.629" width="55.1249" height="14.7711" filterUnits="userSpaceOnUse" color-interpolation-filters="sRGB">
<feFlood flood-opacity="0" result="BackgroundImageFix"/>
<feBlend mode="normal" in="SourceGraphic" in2="BackgroundImageFix" result="shape"/>
<feColorMatrix in="SourceAlpha" type="matrix" values="0 0 0 0 0 0 0 0 0 0 0 0 0 0 0 0 0 0 127 0" result="hardAlpha"/>
<feOffset dx="3" dy="3"/>
<feGaussianBlur stdDeviation="2"/>
<feComposite in2="hardAlpha" operator="arithmetic" k2="-1" k3="1"/>
<feColorMatrix type="matrix" values="0 0 0 0 1 0 0 0 0 1 0 0 0 0 1 0 0 0 1 0"/>
<feBlend mode="normal" in2="shape" result="effect1_innerShadow"/>
</filter>
<filter id="filter19_i" x="400.561" y="655.61" width="52.1249" height="11.7711" filterUnits="userSpaceOnUse" color-interpolation-filters="sRGB">
<feFlood flood-opacity="0" result="BackgroundImageFix"/>
<feBlend mode="normal" in="SourceGraphic" in2="BackgroundImageFix" result="shape"/>
<feColorMatrix in="SourceAlpha" type="matrix" values="0 0 0 0 0 0 0 0 0 0 0 0 0 0 0 0 0 0 127 0" result="hardAlpha"/>
<feOffset dx="-5" dy="2"/>
<feComposite in2="hardAlpha" operator="arithmetic" k2="-1" k3="1"/>
<feColorMatrix type="matrix" values="0 0 0 0 1 0 0 0 0 0.94902 0 0 0 0 0.764706 0 0 0 1 0"/>
<feBlend mode="normal" in2="shape" result="effect1_innerShadow"/>
</filter>
<filter id="filter20_i" x="282.542" y="604.602" width="170.143" height="27.4659" filterUnits="userSpaceOnUse" color-interpolation-filters="sRGB">
<feFlood flood-opacity="0" result="BackgroundImageFix"/>
<feBlend mode="normal" in="SourceGraphic" in2="BackgroundImageFix" result="shape"/>
<feColorMatrix in="SourceAlpha" type="matrix" values="0 0 0 0 0 0 0 0 0 0 0 0 0 0 0 0 0 0 127 0" result="hardAlpha"/>
<feOffset dx="-5" dy="5"/>
<feComposite in2="hardAlpha" operator="arithmetic" k2="-1" k3="1"/>
<feColorMatrix type="matrix" values="0 0 0 0 1 0 0 0 0 0.950877 0 0 0 0 0.766667 0 0 0 1 0"/>
<feBlend mode="normal" in2="shape" result="effect1_innerShadow"/>
</filter>
<filter id="filter21_d" x="92.5635" y="340.542" width="578.464" height="240.804" filterUnits="userSpaceOnUse" color-interpolation-filters="sRGB">
<feFlood flood-opacity="0" result="BackgroundImageFix"/>
<feColorMatrix in="SourceAlpha" type="matrix" values="0 0 0 0 0 0 0 0 0 0 0 0 0 0 0 0 0 0 127 0"/>
<feOffset dy="5"/>
<feColorMatrix type="matrix" values="0 0 0 0 0 0 0 0 0 0 0 0 0 0 0 0 0 0 0.25 0"/>
<feBlend mode="normal" in2="BackgroundImageFix" result="effect1_dropShadow"/>
<feBlend mode="normal" in="SourceGraphic" in2="effect1_dropShadow" result="shape"/>
</filter>
<filter id="filter22_i" x="92.5635" y="340.542" width="181.135" height="235.804" filterUnits="userSpaceOnUse" color-interpolation-filters="sRGB">
<feFlood flood-opacity="0" result="BackgroundImageFix"/>
<feBlend mode="normal" in="SourceGraphic" in2="BackgroundImageFix" result="shape"/>
<feColorMatrix in="SourceAlpha" type="matrix" values="0 0 0 0 0 0 0 0 0 0 0 0 0 0 0 0 0 0 127 0" result="hardAlpha"/>
<feOffset dx="25" dy="35"/>
<feComposite in2="hardAlpha" operator="arithmetic" k2="-1" k3="1"/>
<feColorMatrix type="matrix" values="0 0 0 0 1 0 0 0 0 1 0 0 0 0 1 0 0 0 1 0"/>
<feBlend mode="normal" in2="shape" result="effect1_innerShadow"/>
</filter>
<filter id="filter23_i" x="290.228" y="340.542" width="181.135" height="235.804" filterUnits="userSpaceOnUse" color-interpolation-filters="sRGB">
<feFlood flood-opacity="0" result="BackgroundImageFix"/>
<feBlend mode="normal" in="SourceGraphic" in2="BackgroundImageFix" result="shape"/>
<feColorMatrix in="SourceAlpha" type="matrix" values="0 0 0 0 0 0 0 0 0 0 0 0 0 0 0 0 0 0 127 0" result="hardAlpha"/>
<feOffset dx="25" dy="35"/>
<feComposite in2="hardAlpha" operator="arithmetic" k2="-1" k3="1"/>
<feColorMatrix type="matrix" values="0 0 0 0 1 0 0 0 0 1 0 0 0 0 1 0 0 0 1 0"/>
<feBlend mode="normal" in2="shape" result="effect1_innerShadow"/>
</filter>
<filter id="filter24_i" x="489.892" y="340.542" width="181.135" height="235.804" filterUnits="userSpaceOnUse" color-interpolation-filters="sRGB">
<feFlood flood-opacity="0" result="BackgroundImageFix"/>
<feBlend mode="normal" in="SourceGraphic" in2="BackgroundImageFix" result="shape"/>
<feColorMatrix in="SourceAlpha" type="matrix" values="0 0 0 0 0 0 0 0 0 0 0 0 0 0 0 0 0 0 127 0" result="hardAlpha"/>
<feOffset dx="25" dy="35"/>
<feComposite in2="hardAlpha" operator="arithmetic" k2="-1" k3="1"/>
<feColorMatrix type="matrix" values="0 0 0 0 1 0 0 0 0 1 0 0 0 0 1 0 0 0 1 0"/>
<feBlend mode="normal" in2="shape" result="effect1_innerShadow"/>
</filter>
<filter id="filter25_i" x="791.005" y="312.286" width="115.068" height="114.768" filterUnits="userSpaceOnUse" color-interpolation-filters="sRGB">
<feFlood flood-opacity="0" result="BackgroundImageFix"/>
<feBlend mode="normal" in="SourceGraphic" in2="BackgroundImageFix" result="shape"/>
<feColorMatrix in="SourceAlpha" type="matrix" values="0 0 0 0 0 0 0 0 0 0 0 0 0 0 0 0 0 0 127 0" result="hardAlpha"/>
<feOffset dx="20" dy="-20"/>
<feComposite in2="hardAlpha" operator="arithmetic" k2="-1" k3="1"/>
<feColorMatrix type="matrix" values="0 0 0 0 0.819608 0 0 0 0 0.235294 0 0 0 0 0.360784 0 0 0 1 0"/>
<feBlend mode="normal" in2="shape" result="effect1_innerShadow"/>
</filter>
<filter id="filter26_i" x="146.303" y="411.127" width="87.5002" height="99.873" filterUnits="userSpaceOnUse" color-interpolation-filters="sRGB">
<feFlood flood-opacity="0" result="BackgroundImageFix"/>
<feBlend mode="normal" in="SourceGraphic" in2="BackgroundImageFix" result="shape"/>
<feColorMatrix in="SourceAlpha" type="matrix" values="0 0 0 0 0 0 0 0 0 0 0 0 0 0 0 0 0 0 127 0" result="hardAlpha"/>
<feOffset dx="20" dy="-5"/>
<feComposite in2="hardAlpha" operator="arithmetic" k2="-1" k3="1"/>
<feColorMatrix type="matrix" values="0 0 0 0 1 0 0 0 0 1 0 0 0 0 1 0 0 0 1 0"/>
<feBlend mode="normal" in2="shape" result="effect1_innerShadow"/>
</filter>
<filter id="filter27_i" x="548.303" y="411.127" width="87.5002" height="99.873" filterUnits="userSpaceOnUse" color-interpolation-filters="sRGB">
<feFlood flood-opacity="0" result="BackgroundImageFix"/>
<feBlend mode="normal" in="SourceGraphic" in2="BackgroundImageFix" result="shape"/>
<feColorMatrix in="SourceAlpha" type="matrix" values="0 0 0 0 0 0 0 0 0 0 0 0 0 0 0 0 0 0 127 0" result="hardAlpha"/>
<feOffset dx="20" dy="-5"/>
<feComposite in2="hardAlpha" operator="arithmetic" k2="-1" k3="1"/>
<feColorMatrix type="matrix" values="0 0 0 0 1 0 0 0 0 1 0 0 0 0 1 0 0 0 1 0"/>
<feBlend mode="normal" in2="shape" result="effect1_innerShadow"/>
</filter>
<filter id="filter28_i" x="347.303" y="402.127" width="87.5002" height="99.873" filterUnits="userSpaceOnUse" color-interpolation-filters="sRGB">
<feFlood flood-opacity="0" result="BackgroundImageFix"/>
<feBlend mode="normal" in="SourceGraphic" in2="BackgroundImageFix" result="shape"/>
<feColorMatrix in="SourceAlpha" type="matrix" values="0 0 0 0 0 0 0 0 0 0 0 0 0 0 0 0 0 0 127 0" result="hardAlpha"/>
<feOffset dx="20" dy="-5"/>
<feComposite in2="hardAlpha" operator="arithmetic" k2="-1" k3="1"/>
<feColorMatrix type="matrix" values="0 0 0 0 1 0 0 0 0 1 0 0 0 0 1 0 0 0 1 0"/>
<feBlend mode="normal" in2="shape" result="effect1_innerShadow"/>
</filter>
</defs>
</svg>
